<svg width="800" height="600" xmlns="http://www.w3.org/2000/svg">
 <!-- Created with Method Draw - http://github.com/duopixel/Method-Draw/ -->

 <g>
  <title>background</title>
  <rect fill="#fff" id="canvas_background" height="602" width="802" y="-1" x="-1"/>
  <g display="none" overflow="visible" y="0" x="0" height="100%" width="100%" id="canvasGrid">
   <rect fill="url(#gridpattern)" stroke-width="0" y="0" x="0" height="100%" width="100%"/>
  </g>
 </g>
 <g>
  <title>Layer 1</title>
  <path id="svg_5" d="m400.45251,339.0625c-1.98898,0 -3.97781,-0.55695 -5.71625,-1.6713c-4.80865,-3.08289 -11.78009,-8.22418 -17.68478,-15.21072c-7.33292,-8.67706 -11.05148,-17.84729 -11.05148,-27.25586c0,-18.74054 15.47089,-33.98712 34.487,-33.98712c19.01215,0 34.47968,15.24658 34.47968,33.98712c0,10.02792 -4.30237,19.81445 -12.78793,29.08707c-0.83878,0.91629 -2.2612,0.97931 -3.17764,0.14084c-0.91629,-0.83878 -0.97946,-2.2612 -0.14084,-3.17764c7.70264,-8.41721 11.60828,-17.18185 11.60828,-26.05042c-0.00015,-16.25992 -13.44986,-29.48868 -29.98154,-29.48868c-16.5358,0 -29.98856,13.22876 -29.98856,29.48883c0,19.48105 18.64807,33.53973 26.6658,38.67996c2.01141,1.28937 4.60663,1.28113 6.61148,-0.02121c2.24762,-1.46011 4.45313,-3.04642 6.55533,-4.71558c0.97275,-0.7724 2.38739,-0.60989 3.1601,0.36301c0.7724,0.97275 0.60974,2.3877 -0.36301,3.1601c-2.21313,1.75705 -4.53522,3.42743 -6.9017,4.96475c-1.75201,1.13754 -3.76297,1.70685 -5.77393,1.70685z"/>
  <path id="svg_6" d="m395.49966,304.82803c-0.03174,-0.3392 -0.83649,-8.32001 -6.17462,-11.87729c-1.93466,-1.28983 -4.38309,-1.94534 -7.27463,-1.94534c-3.23837,0 -5.85464,0.82855 -5.96451,0.86365c-0.36209,0.11673 -0.59494,0.4718 -0.56076,0.85403c0.03174,0.33737 0.83313,8.32184 6.17203,11.87805c1.93024,1.28983 4.37607,1.94534 7.26837,1.94534c3.24097,0 5.86288,-0.82947 5.97351,-0.86548c0.36209,-0.11597 0.5957,-0.47089 0.56061,-0.85297"/>
  <path id="svg_7" d="m388.9657,308.79562c-3.34396,0 -6.20987,-0.78201 -8.51822,-2.32422c-6.1055,-4.06693 -7.07153,-12.58026 -7.16171,-13.5376c-0.12955,-1.44928 0.73837,-2.76321 2.10968,-3.20526c0.31708,-0.10117 3.1459,-0.97214 6.65466,-0.97214c3.3429,0 6.21002,0.78156 8.52219,2.32315c6.11496,4.07471 7.07672,12.5824 7.16644,13.53882c0.13275,1.44714 -0.73639,2.76306 -2.11304,3.2045c-0.1123,0.03647 -3.02856,0.97275 -6.66,0.97275zm-11.01715,-15.08423c0.41183,2.1785 1.65115,6.78986 4.99573,9.01794c1.55792,1.04111 3.58292,1.56815 6.02142,1.56815c1.65558,0 3.14072,-0.24612 4.11102,-0.45746c-0.41153,-2.18002 -1.65024,-6.78604 -4.99893,-9.01764c-1.56052,-1.0405 -3.58826,-1.56784 -6.02722,-1.56784c-1.64597,0.00015 -3.12943,0.24551 -4.10202,0.45685z"/>
  <path id="svg_8" d="m424.88077,291.8692c-0.10971,-0.0351 -2.72614,-0.86365 -5.96451,-0.86365c-2.89154,0 -5.34012,0.65536 -7.27463,1.94534c-5.33829,3.55728 -6.14395,11.539 -6.17462,11.87729c-0.03525,0.38208 0.19836,0.737 0.56046,0.85403c0.11154,0.0351 2.73224,0.86456 5.97321,0.86456c2.89322,0 5.33829,-0.65536 7.26852,-1.94534c5.33905,-3.55637 6.14105,-11.54068 6.17188,-11.87805c0.03464,-0.38239 -0.19836,-0.73746 -0.5603,-0.85419"/>
  <g transform="matrix(0.152587890625,0,0,0.152587890625,0,0) " id="svg_9">
   <path id="svg_10" d="m2700.08954,2023.72296c-22.302,0 -40.205,-5.286 -43.568,-6.346c-9.12,-2.945 -14.802,-11.574 -13.929,-21.016c0.223,-2.465 5.989,-61.439 46.969,-88.746c15.148,-10.1 33.939,-15.222 55.85,-15.222c22.975,0 41.528,5.706 43.568,6.357c9.039,2.916 14.725,11.531 13.873,20.965c-0.228,2.513 -6.051,61.541 -46.955,88.787c-15.11,10.096 -33.892,15.221 -55.808,15.221zm-26.96,-32.479c6.365,1.386 16.106,3 26.959,3c15.983,0 29.253,-3.454 39.446,-10.263c22.036,-14.678 30.106,-44.833 32.774,-59.109c-6.368,-1.384 -16.106,-2.998 -26.899,-2.998c-15.985,0 -29.275,3.457 -39.499,10.272c-22.054,14.695 -30.117,44.839 -32.781,59.098z"/>
   <path id="svg_11" d="m2661.45754,2109.29896l-73.7,0c-8.141,0 -14.74,-6.599 -14.74,-14.74s6.599,-14.74 14.74,-14.74l73.7,0c8.141,0 14.74,6.599 14.74,14.74s-6.599,14.74 -14.74,14.74z"/>
  </g>
  <g transform="matrix(0.152587890625,0,0,0.152587890625,0,0) " id="svg_12"/>
  <g transform="matrix(0.152587890625,0,0,0.152587890625,0,0) " id="svg_13"/>
  <g transform="matrix(0.152587890625,0,0,0.152587890625,0,0) " id="svg_14"/>
  <g transform="matrix(0.152587890625,0,0,0.152587890625,0,0) " id="svg_15"/>
  <g transform="matrix(0.152587890625,0,0,0.152587890625,0,0) " id="svg_16"/>
  <g transform="matrix(0.152587890625,0,0,0.152587890625,0,0) " id="svg_17"/>
  <g transform="matrix(0.152587890625,0,0,0.152587890625,0,0) " id="svg_18"/>
  <g transform="matrix(0.152587890625,0,0,0.152587890625,0,0) " id="svg_19"/>
  <g transform="matrix(0.152587890625,0,0,0.152587890625,0,0) " id="svg_20"/>
  <g transform="matrix(0.152587890625,0,0,0.152587890625,0,0) " id="svg_21"/>
  <g transform="matrix(0.152587890625,0,0,0.152587890625,0,0) " id="svg_22"/>
  <g transform="matrix(0.152587890625,0,0,0.152587890625,0,0) " id="svg_23"/>
  <g transform="matrix(0.152587890625,0,0,0.152587890625,0,0) " id="svg_24"/>
  <g transform="matrix(0.152587890625,0,0,0.152587890625,0,0) " id="svg_25"/>
  <g transform="matrix(0.152587890625,0,0,0.152587890625,0,0) " id="svg_26"/>
 </g>
</svg>